<?xml version="1.0" standalone="no"?>
<!DOCTYPE svg PUBLIC "-//W3C//DTD SVG 20010904//EN"
 "http://www.w3.org/TR/2001/REC-SVG-20010904/DTD/svg10.dtd">
<svg version="1.0" xmlns="http://www.w3.org/2000/svg"
 width="640.000000pt" height="640.000000pt" viewBox="0 0 640.000000 640.000000"
 preserveAspectRatio="xMidYMid meet">
<metadata>
Created by potrace 1.11, written by Peter Selinger 2001-2013
</metadata>
<g transform="translate(0.000000,640.000000) scale(0.100000,-0.100000)"
fill="#000000" stroke="none">
<path d="M320 3999 l0 -2401 25 4 c14 3 25 2 25 -3 0 -4 13 -4 30 1 16 5 30 6
30 2 0 -4 29 -7 65 -7 36 0 65 3 65 7 0 4 12 3 27 -1 29 -7 76 -6 100 3 7 3
13 1 13 -3 0 -5 16 -5 35 -1 19 4 35 4 35 0 0 -4 16 -4 35 0 19 4 35 4 35 0 0
-5 14 -5 30 0 17 5 30 5 30 1 0 -4 20 -5 44 -1 24 3 53 3 64 -1 12 -5 24 -4
27 1 3 5 18 5 35 0 17 -5 32 -5 35 0 3 5 15 6 29 0 12 -4 29 -4 36 0 8 5 21 5
29 1 9 -5 25 -5 36 -1 11 4 26 3 33 -2 8 -7 12 -7 12 0 0 7 10 8 30 2 17 -5
30 -5 30 0 0 5 13 5 30 0 17 -5 30 -5 30 0 0 5 13 5 30 0 17 -5 30 -5 30 0 0
5 13 5 30 0 17 -5 30 -5 30 0 0 5 12 5 28 1 28 -7 75 -6 99 3 7 3 13 1 13 -3
0 -5 16 -5 35 -1 19 4 35 4 35 0 0 -4 16 -4 35 0 19 4 35 4 35 0 0 -5 14 -5
30 0 17 5 30 5 30 1 0 -4 25 -4 55 -1 30 3 61 3 67 -1 7 -4 19 -4 28 1 9 5 22
5 30 0 8 -5 21 -5 30 0 9 5 22 5 30 0 8 -5 21 -5 30 0 9 5 22 5 29 0 8 -4 27
-4 42 0 16 5 29 5 29 0 0 -5 13 -5 30 0 17 5 30 5 30 0 0 -5 13 -5 30 0 17 5
30 6 30 2 0 -4 29 -7 65 -7 36 0 65 3 65 7 0 4 12 3 28 -1 28 -7 75 -6 99 3 7
3 13 1 13 -3 0 -5 16 -5 35 -1 19 4 35 4 35 0 0 -4 16 -4 35 0 19 4 35 4 35 0
0 -5 14 -5 30 0 17 5 30 5 30 1 0 -4 12 -7 28 -6 24 0 27 -4 29 -35 16 -285
63 -465 185 -705 22 -44 51 -94 64 -111 13 -17 24 -36 24 -42 0 -6 3 -12 8
-14 4 -1 29 -32 56 -68 94 -125 278 -292 416 -378 57 -35 200 -106 265 -131
33 -13 69 -27 80 -31 16 -6 101 -31 125 -36 38 -7 89 -17 105 -20 137 -26 411
-26 541 0 12 2 39 7 60 10 49 8 218 60 279 86 25 11 46 19 48 19 5 -1 163 84
177 96 8 7 20 14 25 16 26 11 85 52 85 60 0 5 5 9 11 9 14 0 114 85 188 160
60 60 159 182 200 245 95 148 191 370 215 497 6 31 26 126 33 153 4 17 9 1154
10 2528 l3 2497 -2880 0 -2880 0 0 -2401z"/>
</g>
</svg>
